<svg width="1722" height="652" viewBox="0 0 1722 652" fill="none" xmlns="http://www.w3.org/2000/svg">
<path d="M75.6104 388.468C93.2104 388.468 108.65 391.908 121.93 398.788C135.37 405.668 145.69 415.508 152.89 428.308C160.25 440.948 163.93 455.668 163.93 472.468C163.93 489.268 160.25 503.988 152.89 516.628C145.69 529.108 135.37 538.788 121.93 545.668C108.65 552.548 93.2104 555.988 75.6104 555.988H17.0504V388.468H75.6104ZM74.4104 527.428C92.0104 527.428 105.61 522.628 115.21 513.028C124.81 503.428 129.61 489.908 129.61 472.468C129.61 455.028 124.81 441.428 115.21 431.668C105.61 421.748 92.0104 416.788 74.4104 416.788H50.6504V527.428H74.4104ZM275.482 555.988L238.522 490.708H222.682V555.988H189.082V388.468H251.962C264.922 388.468 275.962 390.788 285.082 395.428C294.202 399.908 301.002 406.068 305.482 413.908C310.122 421.588 312.442 430.228 312.442 439.828C312.442 450.868 309.242 460.868 302.842 469.828C296.442 478.628 286.922 484.708 274.282 488.068L314.362 555.988H275.482ZM222.682 465.508H250.762C259.882 465.508 266.682 463.348 271.162 459.028C275.642 454.548 277.882 448.388 277.882 440.548C277.882 432.868 275.642 426.948 271.162 422.788C266.682 418.468 259.882 416.308 250.762 416.308H222.682V465.508ZM420.592 557.668C404.912 557.668 390.512 553.988 377.392 546.628C364.272 539.268 353.872 529.108 346.192 516.148C338.512 503.028 334.672 488.228 334.672 471.748C334.672 455.428 338.512 440.788 346.192 427.828C353.872 414.708 364.272 404.468 377.392 397.108C390.512 389.748 404.912 386.068 420.592 386.068C436.432 386.068 450.832 389.748 463.792 397.108C476.912 404.468 487.232 414.708 494.752 427.828C502.432 440.788 506.272 455.428 506.272 471.748C506.272 488.228 502.432 503.028 494.752 516.148C487.232 529.108 476.912 539.268 463.792 546.628C450.672 553.988 436.272 557.668 420.592 557.668ZM420.592 527.668C430.672 527.668 439.552 525.428 447.232 520.948C454.912 516.308 460.912 509.748 465.232 501.268C469.552 492.788 471.712 482.948 471.712 471.748C471.712 460.548 469.552 450.788 465.232 442.468C460.912 433.988 454.912 427.508 447.232 423.028C439.552 418.548 430.672 416.308 420.592 416.308C410.512 416.308 401.552 418.548 393.712 423.028C386.032 427.508 380.032 433.988 375.712 442.468C371.392 450.788 369.232 460.548 369.232 471.748C369.232 482.948 371.392 492.788 375.712 501.268C380.032 509.748 386.032 516.308 393.712 520.948C401.552 525.428 410.512 527.668 420.592 527.668ZM653.429 440.308C653.429 449.268 651.269 457.668 646.949 465.508C642.789 473.348 636.149 479.668 627.029 484.468C618.069 489.268 606.709 491.668 592.949 491.668H564.869V555.988H531.269V388.468H592.949C605.909 388.468 616.949 390.708 626.069 395.188C635.189 399.668 641.989 405.828 646.469 413.668C651.109 421.508 653.429 430.388 653.429 440.308ZM591.509 464.548C600.789 464.548 607.669 462.468 612.149 458.308C616.629 453.988 618.869 447.988 618.869 440.308C618.869 423.988 609.749 415.828 591.509 415.828H564.869V464.548H591.509Z" fill="black" fill-opacity="0.8"/>
<path d="M846 0.0120239C744.261 0.0120239 661.49 82.7825 661.49 184.521C661.49 185.826 661.802 187.113 662.399 188.273L663.115 189.664C663.253 189.933 663.406 190.194 663.573 190.445L839.09 455.128C839.994 456.58 841.319 457.7 842.879 458.353C842.988 458.399 843.094 458.447 843.204 458.488C843.413 458.564 843.624 458.631 843.839 458.691C844.013 458.74 844.191 458.782 844.37 458.819C844.55 458.857 844.729 458.895 844.913 458.922C845.243 458.969 845.579 458.996 845.917 459.002C845.957 459.002 845.995 459.012 846.035 459.012C846.039 459.012 846.045 459.011 846.049 459.011C846.055 459.011 846.061 459.012 846.067 459.012H846.071C846.478 459.012 846.878 458.973 847.274 458.913C847.338 458.904 847.399 458.889 847.463 458.878C847.817 458.817 848.164 458.732 848.505 458.626C848.55 458.611 848.596 458.597 848.643 458.582C850.366 458.011 851.881 456.889 852.908 455.336L1029.15 189.048C1030.04 187.705 1030.51 186.131 1030.51 184.521C1030.51 82.7825 947.738 0.0120239 846 0.0120239ZM816.984 28.3337C823.737 22.6204 830.709 18.9538 837.794 17.3536V167.659C827.076 161.215 814.784 157.766 801.924 157.765C789.23 157.765 777.09 161.128 766.47 167.41C768.393 128.058 776.931 91.6639 791.003 63.5215C798.598 48.3298 807.34 36.4917 816.984 28.3337ZM798.563 23.2462C790.418 31.9474 782.931 42.9786 776.328 56.1847C761.108 86.623 751.943 125.794 750.026 167.886C739.219 161.293 726.786 157.765 713.771 157.765C701.269 157.765 689.307 161.031 678.804 167.132C685.877 98.617 734.263 42.1906 798.563 23.2462ZM680.292 185.97C689.748 178.331 701.416 174.173 713.771 174.173C727.325 174.173 740.062 179.165 749.945 188.283L749.225 188.525L818.332 394.138L680.292 185.97ZM837.796 400.546L766.292 187.803C776.099 178.995 788.613 174.173 801.924 174.173C815.34 174.173 827.955 179.071 837.795 188.016L837.795 197.512L837.796 400.546ZM854.202 17.3536C861.289 18.9538 868.261 22.6204 875.015 28.3337C884.658 36.4917 893.4 48.3298 900.996 63.5215C915.067 91.6648 923.609 128.059 925.531 167.411C914.913 161.129 902.771 157.766 890.076 157.765C877.215 157.765 864.92 161.215 854.202 167.659V17.3536ZM854.202 188.017C864.043 179.072 876.656 174.173 890.076 174.173C903.386 174.173 915.902 178.997 925.708 187.805L854.202 400.716V188.017ZM873.703 394.186L942.773 188.526L942.053 188.284C951.936 179.165 964.675 174.173 978.228 174.173C990.526 174.173 1002.14 178.295 1011.58 185.867L873.703 394.186ZM978.228 157.765C965.214 157.765 952.779 161.293 941.972 167.886C940.055 125.794 930.89 86.6221 915.67 56.1847C909.067 42.9768 901.577 31.9474 893.429 23.2453C957.732 42.1879 1006.12 98.617 1013.2 167.133C1002.69 161.031 990.729 157.765 978.228 157.765Z" fill="#BEE3F8"/>
<path d="M724.276 591.388L725.055 453.234H709.464V629.02C730.889 623.486 752.389 619.964 774.04 619.813C794.032 619.688 814.023 622.48 834.065 629.272C821.618 619.184 807.737 611.764 792.925 606.934C774.267 600.846 754.099 598.834 733.429 600.595C728.752 600.972 724.678 597.501 724.276 592.847C724.225 592.344 724.225 591.866 724.276 591.388ZM953.058 446.015C953.008 445.612 952.958 445.185 952.958 444.732C952.958 444.304 952.983 443.877 953.058 443.449V415.476C933.444 413.615 913.226 415.778 895.573 422.469C879.077 428.733 864.844 439.022 855.59 453.763V613.097C869.974 603.487 884.685 595.589 899.798 590.205C917.023 584.068 934.726 581.15 953.058 582.609V446.015ZM970.032 436.255H993.016C997.693 436.255 1001.49 440.053 1001.49 444.732V640.089C1001.49 644.767 997.693 648.566 993.016 648.566C992.06 648.566 991.13 648.415 990.275 648.113C966.637 641.346 943.151 636.844 919.89 636.693C897.208 636.542 874.551 640.541 851.793 650.578C850.385 651.509 848.7 652.012 846.965 651.987C845.255 652.012 843.57 651.509 842.137 650.578C819.405 640.516 796.723 636.542 774.04 636.693C750.78 636.844 727.318 641.346 703.655 648.113C702.8 648.415 701.87 648.566 700.914 648.566C696.288 648.591 692.49 644.793 692.49 640.114V444.732C692.49 440.053 696.288 436.255 700.965 436.255H725.131L725.281 407.93C725.307 403.854 728.173 400.484 732.021 399.679C754.326 395.025 781.434 396.182 805.197 405.288C821.618 411.577 836.529 421.614 847.418 436.104C858.407 422.595 873.092 412.885 889.614 406.622C912.195 398.044 938.247 395.981 962.765 399.578C966.989 400.182 970.007 403.829 970.007 407.955V436.255H970.032ZM863.813 627.989C882.548 622.102 901.257 619.688 919.965 619.788C941.617 619.914 963.117 623.461 984.542 628.995V453.234H970.032V592.142C970.032 596.821 966.235 600.62 961.558 600.62C960.879 600.62 960.225 600.544 959.596 600.393C941.038 597.475 923.059 599.89 905.506 606.154C891.374 611.21 877.493 618.757 863.813 627.989ZM838.642 611.462V453.511C829.765 437.839 815.406 427.35 799.187 421.136C780.805 414.093 760.16 412.508 742.155 415.074L741.199 583.137C760.839 582.432 780.05 584.923 798.131 590.834C812.515 595.513 826.144 602.381 838.642 611.462Z" fill="#4299E1"/>
<path d="M1142.11 470.068C1151.55 471.828 1159.31 476.548 1165.39 484.228C1171.47 491.908 1174.51 500.708 1174.51 510.628C1174.51 519.588 1172.27 527.508 1167.79 534.388C1163.47 541.108 1157.15 546.388 1148.83 550.228C1140.51 554.068 1130.67 555.988 1119.31 555.988H1047.07V388.468H1116.19C1127.55 388.468 1137.31 390.308 1145.47 393.988C1153.79 397.668 1160.03 402.788 1164.19 409.348C1168.51 415.908 1170.67 423.348 1170.67 431.668C1170.67 441.428 1168.03 449.588 1162.75 456.148C1157.63 462.708 1150.75 467.348 1142.11 470.068ZM1080.67 457.588H1111.39C1119.39 457.588 1125.55 455.828 1129.87 452.308C1134.19 448.628 1136.35 443.428 1136.35 436.708C1136.35 429.988 1134.19 424.788 1129.87 421.108C1125.55 417.428 1119.39 415.588 1111.39 415.588H1080.67V457.588ZM1114.51 528.628C1122.67 528.628 1128.99 526.708 1133.47 522.868C1138.11 519.028 1140.43 513.588 1140.43 506.548C1140.43 499.348 1138.03 493.748 1133.23 489.748C1128.43 485.588 1121.95 483.508 1113.79 483.508H1080.67V528.628H1114.51ZM1279.05 557.668C1263.37 557.668 1248.97 553.988 1235.85 546.628C1222.73 539.268 1212.33 529.108 1204.65 516.148C1196.97 503.028 1193.13 488.228 1193.13 471.748C1193.13 455.428 1196.97 440.788 1204.65 427.828C1212.33 414.708 1222.73 404.468 1235.85 397.108C1248.97 389.748 1263.37 386.068 1279.05 386.068C1294.89 386.068 1309.29 389.748 1322.25 397.108C1335.37 404.468 1345.69 414.708 1353.21 427.828C1360.89 440.788 1364.73 455.428 1364.73 471.748C1364.73 488.228 1360.89 503.028 1353.21 516.148C1345.69 529.108 1335.37 539.268 1322.25 546.628C1309.13 553.988 1294.73 557.668 1279.05 557.668ZM1279.05 527.668C1289.13 527.668 1298.01 525.428 1305.69 520.948C1313.37 516.308 1319.37 509.748 1323.69 501.268C1328.01 492.788 1330.17 482.948 1330.17 471.748C1330.17 460.548 1328.01 450.788 1323.69 442.468C1319.37 433.988 1313.37 427.508 1305.69 423.028C1298.01 418.548 1289.13 416.308 1279.05 416.308C1268.97 416.308 1260.01 418.548 1252.17 423.028C1244.49 427.508 1238.49 433.988 1234.17 442.468C1229.85 450.788 1227.69 460.548 1227.69 471.748C1227.69 482.948 1229.85 492.788 1234.17 501.268C1238.49 509.748 1244.49 516.308 1252.17 520.948C1260.01 525.428 1268.97 527.668 1279.05 527.668ZM1467.49 557.668C1451.81 557.668 1437.41 553.988 1424.29 546.628C1411.17 539.268 1400.77 529.108 1393.09 516.148C1385.41 503.028 1381.57 488.228 1381.57 471.748C1381.57 455.428 1385.41 440.788 1393.09 427.828C1400.77 414.708 1411.17 404.468 1424.29 397.108C1437.41 389.748 1451.81 386.068 1467.49 386.068C1483.33 386.068 1497.73 389.748 1510.69 397.108C1523.81 404.468 1534.13 414.708 1541.65 427.828C1549.33 440.788 1553.17 455.428 1553.17 471.748C1553.17 488.228 1549.33 503.028 1541.65 516.148C1534.13 529.108 1523.81 539.268 1510.69 546.628C1497.57 553.988 1483.17 557.668 1467.49 557.668ZM1467.49 527.668C1477.57 527.668 1486.45 525.428 1494.13 520.948C1501.81 516.308 1507.81 509.748 1512.13 501.268C1516.45 492.788 1518.61 482.948 1518.61 471.748C1518.61 460.548 1516.45 450.788 1512.13 442.468C1507.81 433.988 1501.81 427.508 1494.13 423.028C1486.45 418.548 1477.57 416.308 1467.49 416.308C1457.41 416.308 1448.45 418.548 1440.61 423.028C1432.93 427.508 1426.93 433.988 1422.61 442.468C1418.29 450.788 1416.13 460.548 1416.13 471.748C1416.13 482.948 1418.29 492.788 1422.61 501.268C1426.93 509.748 1432.93 516.308 1440.61 520.948C1448.45 525.428 1457.41 527.668 1467.49 527.668ZM1672.72 555.988L1611.76 481.348V555.988H1578.16V388.468H1611.76V463.588L1672.72 388.468H1713.28L1644.16 471.508L1715.2 555.988H1672.72Z" fill="black" fill-opacity="0.8"/>
</svg>
