<svg width="377" height="354" viewBox="0 0 377 354" fill="none" xmlns="http://www.w3.org/2000/svg">
<path fill-rule="evenodd" clip-rule="evenodd" d="M234.415 0.121091C268.726 0.121092 300.471 18.5815 317.627 48.5105L363.69 128.871C380.766 158.661 380.794 195.29 363.765 224.999L317.403 305.879C300.373 335.589 268.865 353.879 234.713 353.879H142.586C108.275 353.879 76.5294 335.418 59.3737 305.489L13.3101 225.129C-3.76561 195.339 -3.79388 158.71 13.2358 129.001L59.5972 48.1205C76.627 18.4112 108.136 0.121088 142.287 0.121089L234.415 0.121091ZM182.746 286.049V182.226C176.953 171.925 167.582 165.029 156.997 160.945C145.001 156.316 131.528 155.274 119.778 156.96L119.154 267.43C131.971 266.967 144.509 268.604 156.308 272.49C165.695 275.565 174.59 280.08 182.746 286.049ZM257.414 177.298C257.381 177.034 257.348 176.753 257.348 176.455C257.348 176.174 257.365 175.893 257.414 175.612V157.225C244.614 156.001 231.419 157.423 219.899 161.822C209.134 165.939 199.845 172.702 193.806 182.391V287.123C203.193 280.807 212.793 275.615 222.656 272.077C233.897 268.042 245.451 266.124 257.414 267.083V177.298ZM108.619 182.044L108.11 272.854C108.077 273.168 108.077 273.482 108.11 273.813C108.373 276.872 111.031 279.154 114.084 278.906C127.573 277.748 140.734 279.071 152.911 283.072C162.577 286.247 171.636 291.125 179.759 297.755C166.68 293.291 153.633 291.456 140.587 291.538C126.457 291.637 112.426 293.952 98.4443 297.59V182.044H108.619ZM199.173 296.912C211.399 293.043 223.608 291.456 235.818 291.522C249.947 291.604 263.978 293.936 277.96 297.573V182.044H268.491V273.35C268.491 276.425 266.013 278.922 262.961 278.922C262.518 278.922 262.091 278.872 261.681 278.773C249.57 276.855 237.836 278.443 226.381 282.56C217.159 285.883 208.1 290.844 199.173 296.912ZM157.953 82.4283C157.953 79.6669 155.715 77.4283 152.953 77.4283C150.192 77.4283 147.953 79.6669 147.953 82.4283V135.671C147.953 138.432 150.192 140.671 152.953 140.671C155.715 140.671 157.953 138.432 157.953 135.671V82.4283ZM193.415 40.2289C196.176 40.2289 198.415 42.4675 198.415 45.2289L198.415 151.568C198.415 154.329 196.176 156.568 193.415 156.568C190.653 156.568 188.415 154.329 188.415 151.568L188.415 45.2289C188.415 42.4675 190.653 40.2289 193.415 40.2289ZM227.782 108.787C227.782 106.026 225.543 103.787 222.782 103.787C220.02 103.787 217.782 106.026 217.782 108.787V135.737C217.782 138.498 220.02 140.737 222.782 140.737C225.543 140.737 227.782 138.498 227.782 135.737V108.787Z" fill="url(#paint0_linear_13_15)"/>
<defs>
<linearGradient id="paint0_linear_13_15" x1="188.5" y1="0.121094" x2="188.5" y2="353.879" gradientUnits="userSpaceOnUse">
<stop stop-color="#F857A6"/>
<stop offset="1" stop-color="#FF5858"/>
</linearGradient>
</defs>
</svg>
