<svg width="377" height="354" viewBox="0 0 377 354" fill="none" xmlns="http://www.w3.org/2000/svg">
<path fill-rule="evenodd" clip-rule="evenodd" d="M234.415 0.121094C268.726 0.121097 300.471 18.5815 317.627 48.5105L363.69 128.871C380.766 158.661 380.794 195.29 363.765 224.999L317.403 305.879C300.373 335.589 268.865 353.879 234.713 353.879L142.586 353.879C108.275 353.879 76.5294 335.419 59.3737 305.489L13.3101 225.129C-3.76562 195.339 -3.79388 158.71 13.2358 129.001L59.5973 48.1205C76.627 18.4112 108.136 0.121094 142.287 0.121094H234.415ZM181.619 254.99V117.47C173.949 103.825 161.542 94.6924 147.527 89.2827C131.644 83.1502 113.805 81.7704 98.2471 84.0044L97.4214 230.329C114.391 229.716 130.992 231.884 146.615 237.031C159.043 241.105 170.82 247.084 181.619 254.99ZM280.484 110.943C280.441 110.593 280.397 110.221 280.397 109.826C280.397 109.454 280.419 109.082 280.484 108.709V84.3548C263.599 82.7401 246.196 84.6036 230.983 90.3785L230.983 162C230.983 164.761 228.745 167 225.983 167C223.222 167 220.983 164.761 220.983 162L220.983 94.9464C215.082 98.144 209.684 102.061 205 106.731V147.941C205 150.702 202.761 152.941 200 152.941C198.514 152.941 197.18 152.293 196.264 151.264V256.414C208.693 248.048 221.404 241.171 234.463 236.484C249.347 231.14 264.644 228.599 280.484 229.869V110.943ZM83.4717 117.229L82.7981 237.513C82.7546 237.929 82.7546 238.345 82.7981 238.783C83.1458 242.835 86.6658 245.858 90.7073 245.529C108.568 243.996 125.994 245.748 142.117 251.048C154.915 255.253 166.909 261.714 177.665 270.497C160.347 264.583 143.073 262.152 125.799 262.262C107.091 262.393 88.5127 265.459 70 270.278V117.229H83.4717ZM203.37 269.38C219.557 264.255 235.723 262.152 251.889 262.24C270.598 262.349 289.176 265.438 307.688 270.256V117.229H295.151V238.17C295.151 242.244 291.87 245.551 287.828 245.551C287.242 245.551 286.677 245.485 286.134 245.354C270.098 242.813 254.562 244.916 239.396 250.369C227.184 254.771 215.19 261.342 203.37 269.38ZM253.312 125.793C253.312 123.031 251.074 120.793 248.312 120.793C245.551 120.793 243.312 123.031 243.312 125.793V148.601C243.312 151.363 245.551 153.601 248.312 153.601C251.074 153.601 253.312 151.363 253.312 148.601V125.793Z" fill="url(#paint0_linear_18_170)"/>
<defs>
<linearGradient id="paint0_linear_18_170" x1="188.5" y1="0.121094" x2="188.5" y2="353.879" gradientUnits="userSpaceOnUse">
<stop stop-color="#F857A6"/>
<stop offset="1" stop-color="#FF5858"/>
</linearGradient>
</defs>
</svg>
