<svg width="1054" height="284" viewBox="0 0 1054 284" fill="none" xmlns="http://www.w3.org/2000/svg">
<g clip-path="url(#clip0_227_88)">
<path fill-rule="evenodd" clip-rule="evenodd" d="M130.092 40.7173C138.363 39.7449 146.518 39.7911 154.433 40.7566L54.736 194.82C47.3994 182.716 42.4783 168.882 40.7177 153.907C34.1412 97.9707 74.1555 47.2938 130.092 40.7173ZM153.908 243.282C122.702 246.951 93.1333 236.119 71.9453 216.113L180.916 47.7172C213.953 61.3888 238.811 92.0601 243.282 130.092C249.859 186.029 209.844 236.705 153.908 243.282ZM108.321 205.614L101.645 201.294L180.095 80.0631L186.771 84.3832L108.321 205.614Z" fill="white"/>
</g>
<path d="M437.454 183.73H384.634L375.894 209H347.964L395.654 76.19H426.624L474.314 209H446.194L437.454 183.73ZM430.234 162.45L411.044 106.97L391.854 162.45H430.234ZM518.74 119.13C522.16 114.063 526.847 109.947 532.8 106.78C538.88 103.613 545.784 102.03 553.51 102.03C562.504 102.03 570.61 104.247 577.83 108.68C585.177 113.113 590.94 119.447 595.12 127.68C599.427 135.787 601.58 145.223 601.58 155.99C601.58 166.757 599.427 176.32 595.12 184.68C590.94 192.913 585.177 199.31 577.83 203.87C570.61 208.43 562.504 210.71 553.51 210.71C545.657 210.71 538.754 209.19 532.8 206.15C526.974 202.983 522.287 198.93 518.74 193.99V209H492.14V68.4H518.74V119.13ZM574.41 155.99C574.41 149.657 573.08 144.21 570.42 139.65C567.887 134.963 564.467 131.417 560.16 129.01C555.98 126.603 551.42 125.4 546.48 125.4C541.667 125.4 537.107 126.667 532.8 129.2C528.62 131.607 525.2 135.153 522.54 139.84C520.007 144.527 518.74 150.037 518.74 156.37C518.74 162.703 520.007 168.213 522.54 172.9C525.2 177.587 528.62 181.197 532.8 183.73C537.107 186.137 541.667 187.34 546.48 187.34C551.42 187.34 555.98 186.073 560.16 183.54C564.467 181.007 567.887 177.397 570.42 172.71C573.08 168.023 574.41 162.45 574.41 155.99ZM651.88 125.59V176.51C651.88 180.057 652.703 182.653 654.35 184.3C656.123 185.82 659.036 186.58 663.09 186.58H675.44V209H658.72C636.3 209 625.09 198.107 625.09 176.32V125.59H612.55V103.74H625.09V77.71H651.88V103.74H675.44V125.59H651.88ZM721.172 120.08C724.592 114.507 729.025 110.137 734.472 106.97C740.045 103.803 746.379 102.22 753.472 102.22V130.15H746.442C738.082 130.15 731.749 132.113 727.442 136.04C723.262 139.967 721.172 146.807 721.172 156.56V209H694.572V103.74H721.172V120.08ZM764.548 155.99C764.548 145.35 766.638 135.913 770.818 127.68C775.125 119.447 780.888 113.113 788.108 108.68C795.455 104.247 803.625 102.03 812.618 102.03C820.472 102.03 827.312 103.613 833.138 106.78C839.092 109.947 843.842 113.937 847.388 118.75V103.74H874.178V209H847.388V193.61C843.968 198.55 839.218 202.667 833.138 205.96C827.185 209.127 820.282 210.71 812.428 210.71C803.562 210.71 795.455 208.43 788.108 203.87C780.888 199.31 775.125 192.913 770.818 184.68C766.638 176.32 764.548 166.757 764.548 155.99ZM847.388 156.37C847.388 149.91 846.122 144.4 843.588 139.84C841.055 135.153 837.635 131.607 833.328 129.2C829.022 126.667 824.398 125.4 819.458 125.4C814.518 125.4 809.958 126.603 805.778 129.01C801.598 131.417 798.178 134.963 795.518 139.65C792.985 144.21 791.718 149.657 791.718 155.99C791.718 162.323 792.985 167.897 795.518 172.71C798.178 177.397 801.598 181.007 805.778 183.54C810.085 186.073 814.645 187.34 819.458 187.34C824.398 187.34 829.022 186.137 833.328 183.73C837.635 181.197 841.055 177.65 843.588 173.09C846.122 168.403 847.388 162.83 847.388 156.37ZM913.648 91.2C908.961 91.2 905.035 89.7433 901.868 86.83C898.828 83.79 897.308 80.0533 897.308 75.62C897.308 71.1867 898.828 67.5133 901.868 64.6C905.035 61.56 908.961 60.04 913.648 60.04C918.335 60.04 922.198 61.56 925.238 64.6C928.405 67.5133 929.988 71.1867 929.988 75.62C929.988 80.0533 928.405 83.79 925.238 86.83C922.198 89.7433 918.335 91.2 913.648 91.2ZM926.758 103.74V209H900.158V103.74H926.758ZM979.639 68.4V209H953.039V68.4H979.639Z" fill="white"/>
<defs>
<clipPath id="clip0_227_88">
<rect x="0.974609" y="0.974609" width="282.05" height="282.05" rx="60" fill="white"/>
</clipPath>
</defs>
</svg>
