<svg width="377" height="354" viewBox="0 0 377 354" fill="none" xmlns="http://www.w3.org/2000/svg">
<path fill-rule="evenodd" clip-rule="evenodd" d="M234.415 0.121099C268.726 0.121099 300.471 18.5815 317.627 48.5105L363.69 128.871C380.766 158.661 380.794 195.29 363.765 224.999L317.403 305.879C300.373 335.589 268.865 353.879 234.713 353.879H142.586C108.275 353.879 76.5294 335.419 59.3737 305.489L13.3101 225.129C-3.76561 195.339 -3.79388 158.71 13.2358 129.001L59.5972 48.1206C76.627 18.4113 108.136 0.121096 142.287 0.121097L234.415 0.121099ZM310.916 138.406C311.085 140.492 310.39 142.637 308.813 144.252L260.973 193.168C257.535 191.601 252.38 189.263 246.457 186.584L295.606 136.33C289.854 124.358 277.615 116.094 263.441 116.094C251.325 116.094 240.628 122.14 234.183 131.373L221.1 175.156C216.017 172.874 211.252 170.743 207.306 168.989L218.462 131.658C212.041 122.263 201.243 116.094 189.001 116.094C176.522 116.094 165.548 122.506 159.175 132.208L171.573 172.757C167.932 175.706 163.612 179.229 159.032 182.982L143.3 131.523C136.868 122.204 126.118 116.094 113.935 116.094C99.9492 116.094 87.8537 124.144 82.0096 135.858L141.973 197.042C137.812 200.493 133.859 203.788 130.429 206.668L69.1378 144.127C67.589 142.546 66.8895 140.454 67.0215 138.406H67L67.0085 138.343L67.0187 138.27L67.0192 138.266C67.0254 138.223 67.0315 138.179 67.0375 138.134C67.0437 138.072 67.0532 138.011 67.0627 137.949L67.0628 137.949C67.0676 137.918 67.0724 137.887 67.0768 137.856C75.4913 78.1136 126.956 32 189.001 32C251.235 32 302.825 78.3973 311 138.406H310.916ZM125 240.871C125 246.792 126.645 255.948 127.467 259.786C127.33 261.705 127.056 266.283 127.056 269.244C127.056 272.205 127.878 276.783 128.289 278.702C128.152 279.25 131.168 284.459 131.579 284.87C131.652 284.943 131.765 285.069 131.91 285.23C132.577 285.975 133.928 287.484 135.279 288.159C136.243 288.641 157.811 298.72 175.676 307.069C188.304 312.971 199.082 318.007 199.423 318.178C200.245 318.589 201.479 319 202.301 319C203.123 319 203.946 319 204.768 318.589C205.591 318.178 269.734 255.008 269.734 255.008C269.734 255.008 272.285 252.912 270.145 249.917C268.006 246.922 266.033 248.017 266.033 248.017L201.068 309.542C182.016 300.359 143.092 281.58 141.036 280.346C138.98 279.113 138.569 276.646 138.569 275.823V265.954L195.722 293.094C196.545 293.642 199.012 294.739 200.245 294.739C201.479 294.739 201.89 294.739 203.124 293.916C204.357 293.094 263.1 235.168 263.1 235.168C263.1 235.168 265.259 233.523 263.1 230.645C260.942 227.766 259.4 229 259.4 229L199.012 285.281C184.231 277.996 157.82 264.366 145.34 257.926C141.618 256.005 139.135 254.724 138.569 254.44C136.102 253.207 136.102 251.973 136.102 249.095V232.646L194.489 259.786C195.037 260.06 196.545 260.608 198.189 260.608C199.834 260.608 200.519 260.06 200.656 259.786C200.656 259.786 255.754 211.009 256.988 208.953C258.221 206.897 258.221 206.074 258.221 205.252C258.221 204.429 258.221 202.785 256.576 201.962C254.932 201.14 199.423 176.056 196.956 175.234C194.489 174.411 192.762 174 190.788 174C188.815 174 185.854 174.411 184.209 175.234C182.565 176.056 131.168 218.254 129.112 220.721C127.056 223.189 125 234.949 125 240.871Z" fill="url(#paint0_linear_26_267)"/>
<defs>
<linearGradient id="paint0_linear_26_267" x1="188.5" y1="0.121094" x2="188.5" y2="353.879" gradientUnits="userSpaceOnUse">
<stop stop-color="#F857A6"/>
<stop offset="1" stop-color="#FF5858"/>
</linearGradient>
</defs>
</svg>
