<svg width="284" height="284" viewBox="0 0 284 284" fill="none" xmlns="http://www.w3.org/2000/svg">
<g clip-path="url(#clip0_227_89)">
<path fill-rule="evenodd" clip-rule="evenodd" d="M130.092 40.7173C138.363 39.7449 146.518 39.7911 154.433 40.7566L54.736 194.82C47.3994 182.716 42.4783 168.882 40.7177 153.907C34.1412 97.9707 74.1555 47.2938 130.092 40.7173ZM153.908 243.282C122.702 246.951 93.1333 236.119 71.9453 216.113L180.916 47.7172C213.953 61.3888 238.811 92.0601 243.282 130.092C249.859 186.029 209.844 236.705 153.908 243.282ZM108.321 205.614L101.645 201.294L180.095 80.0631L186.771 84.3832L108.321 205.614Z" fill="white"/>
</g>
<defs>
<clipPath id="clip0_227_89">
<rect x="0.974609" y="0.974609" width="282.05" height="282.05" rx="60" fill="white"/>
</clipPath>
</defs>
</svg>
