<svg width="1060" height="284" viewBox="0 0 1060 284" fill="none" xmlns="http://www.w3.org/2000/svg">
<g clip-path="url(#clip0_103_144)">
<rect x="0.474609" y="0.974609" width="282.05" height="282.05" rx="60" fill="#38A146"/>
<g filter="url(#filter0_d_103_144)">
<path fill-rule="evenodd" clip-rule="evenodd" d="M129.592 40.7173C137.863 39.7449 146.018 39.7911 153.933 40.7566L54.236 194.82C46.8994 182.716 41.9783 168.882 40.2177 153.907C33.6412 97.9707 73.6555 47.2938 129.592 40.7173ZM153.408 243.282C122.202 246.951 92.6333 236.119 71.4453 216.113L180.416 47.7172C213.453 61.3888 238.311 92.0601 242.782 130.092C249.359 186.029 209.344 236.705 153.408 243.282ZM107.821 205.614L101.145 201.294L179.595 80.0631L186.271 84.3832L107.821 205.614Z" fill="white"/>
</g>
</g>
<path d="M404.324 117.4C407.924 112.067 412.858 107.733 419.124 104.4C425.524 101.067 432.791 99.4 440.924 99.4C450.391 99.4 458.924 101.733 466.524 106.4C474.258 111.067 480.324 117.733 484.724 126.4C489.258 134.933 491.524 144.867 491.524 156.2C491.524 167.533 489.258 177.6 484.724 186.4C480.324 195.067 474.258 201.8 466.524 206.6C458.924 211.4 450.391 213.8 440.924 213.8C432.658 213.8 425.391 212.2 419.124 209C412.991 205.667 408.058 201.4 404.324 196.2V212H376.324V64H404.324V117.4ZM462.924 156.2C462.924 149.533 461.524 143.8 458.724 139C456.058 134.067 452.458 130.333 447.924 127.8C443.524 125.267 438.724 124 433.524 124C428.458 124 423.658 125.333 419.124 128C414.724 130.533 411.124 134.267 408.324 139.2C405.658 144.133 404.324 149.933 404.324 156.6C404.324 163.267 405.658 169.067 408.324 174C411.124 178.933 414.724 182.733 419.124 185.4C423.658 187.933 428.458 189.2 433.524 189.2C438.724 189.2 443.524 187.867 447.924 185.2C452.458 182.533 456.058 178.733 458.724 173.8C461.524 168.867 462.924 163 462.924 156.2ZM526.071 88C521.138 88 517.005 86.4667 513.671 83.4C510.471 80.2 508.871 76.2667 508.871 71.6C508.871 66.9333 510.471 63.0667 513.671 60C517.005 56.8 521.138 55.2 526.071 55.2C531.005 55.2 535.071 56.8 538.271 60C541.605 63.0667 543.271 66.9333 543.271 71.6C543.271 76.2667 541.605 80.2 538.271 83.4C535.071 86.4667 531.005 88 526.071 88ZM539.871 101.2V212H511.871V101.2H539.871ZM721.135 101.2L688.735 212H658.535L638.335 134.6L618.135 212H587.735L555.135 101.2H583.535L603.135 185.6L624.335 101.2H653.935L674.735 185.4L694.335 101.2H721.135ZM729.085 156.2C729.085 145 731.285 135.067 735.685 126.4C740.219 117.733 746.285 111.067 753.885 106.4C761.619 101.733 770.219 99.4 779.685 99.4C787.952 99.4 795.152 101.067 801.285 104.4C807.552 107.733 812.552 111.933 816.285 117V101.2H844.485V212H816.285V195.8C812.685 201 807.685 205.333 801.285 208.8C795.019 212.133 787.752 213.8 779.485 213.8C770.152 213.8 761.619 211.4 753.885 206.6C746.285 201.8 740.219 195.067 735.685 186.4C731.285 177.6 729.085 167.533 729.085 156.2ZM816.285 156.6C816.285 149.8 814.952 144 812.285 139.2C809.619 134.267 806.019 130.533 801.485 128C796.952 125.333 792.085 124 786.885 124C781.685 124 776.885 125.267 772.485 127.8C768.085 130.333 764.485 134.067 761.685 139C759.019 143.8 757.685 149.533 757.685 156.2C757.685 162.867 759.019 168.733 761.685 173.8C764.485 178.733 768.085 182.533 772.485 185.2C777.019 187.867 781.819 189.2 786.885 189.2C792.085 189.2 796.952 187.933 801.485 185.4C806.019 182.733 809.619 179 812.285 174.2C814.952 169.267 816.285 163.4 816.285 156.6ZM977.832 101.2L909.232 264.4H879.432L903.432 209.2L859.032 101.2H890.432L919.032 178.6L948.032 101.2H977.832Z" fill="black"/>
<defs>
<filter id="filter0_d_103_144" x="35.5107" y="40.0098" width="211.979" height="211.979" filterUnits="userSpaceOnUse" color-interpolation-filters="sRGB">
<feFlood flood-opacity="0" result="BackgroundImageFix"/>
<feColorMatrix in="SourceAlpha" type="matrix" values="0 0 0 0 0 0 0 0 0 0 0 0 0 0 0 0 0 0 127 0" result="hardAlpha"/>
<feOffset dy="4"/>
<feGaussianBlur stdDeviation="2"/>
<feComposite in2="hardAlpha" operator="out"/>
<feColorMatrix type="matrix" values="0 0 0 0 0 0 0 0 0 0 0 0 0 0 0 0 0 0 0.25 0"/>
<feBlend mode="normal" in2="BackgroundImageFix" result="effect1_dropShadow_103_144"/>
<feBlend mode="normal" in="SourceGraphic" in2="effect1_dropShadow_103_144" result="shape"/>
</filter>
<clipPath id="clip0_103_144">
<rect x="0.474609" y="0.974609" width="282.05" height="282.05" rx="60" fill="white"/>
</clipPath>
</defs>
</svg>
