<svg width="1584" height="354" viewBox="0 0 1584 354" fill="none" xmlns="http://www.w3.org/2000/svg">
<path fill-rule="evenodd" clip-rule="evenodd" d="M234.415 0.121096C268.726 0.121096 300.471 18.5815 317.627 48.5105L363.69 128.871C380.766 158.661 380.794 195.29 363.765 224.999L317.403 305.879C300.373 335.589 268.865 353.879 234.713 353.879H142.586C108.275 353.879 76.5294 335.419 59.3737 305.489L13.3101 225.129C-3.76562 195.339 -3.79388 158.71 13.2358 129.001L59.5972 48.1205C76.627 18.4112 108.136 0.121093 142.287 0.121094L234.415 0.121096ZM310.916 138.406C311.085 140.492 310.39 142.637 308.813 144.252L260.973 193.168C257.535 191.601 252.38 189.263 246.457 186.584L295.606 136.33C289.854 124.358 277.615 116.094 263.441 116.094C251.325 116.094 240.628 122.14 234.183 131.373L221.1 175.156C216.017 172.874 211.252 170.743 207.306 168.989L218.462 131.658C212.041 122.263 201.243 116.094 189.001 116.094C176.522 116.094 165.548 122.506 159.175 132.208L171.573 172.757C167.932 175.706 163.612 179.229 159.032 182.982L143.3 131.523C136.868 122.204 126.118 116.094 113.935 116.094C99.9492 116.094 87.8537 124.144 82.0096 135.858L141.973 197.042C137.812 200.493 133.859 203.788 130.429 206.668L69.1378 144.127C67.589 142.546 66.8895 140.454 67.0215 138.406H67L67.0085 138.343L67.0187 138.27L67.0192 138.266C67.0254 138.223 67.0315 138.179 67.0375 138.134C67.0437 138.072 67.0532 138.011 67.0627 137.949L67.0628 137.949C67.0676 137.918 67.0724 137.887 67.0768 137.856C75.4913 78.1136 126.956 32 189.001 32C251.235 32 302.825 78.3973 311 138.406H310.916ZM125 240.871C125 246.792 126.645 255.948 127.467 259.786C127.33 261.705 127.056 266.283 127.056 269.244C127.056 272.205 127.878 276.783 128.289 278.702C128.152 279.25 131.168 284.459 131.579 284.87C131.652 284.943 131.765 285.069 131.91 285.23C132.577 285.975 133.928 287.484 135.279 288.159C136.243 288.641 157.811 298.72 175.676 307.069C188.304 312.971 199.082 318.007 199.423 318.178C200.245 318.589 201.479 319 202.301 319C203.123 319 203.946 319 204.768 318.589C205.591 318.178 269.734 255.008 269.734 255.008C269.734 255.008 272.285 252.912 270.145 249.917C268.006 246.922 266.033 248.017 266.033 248.017L201.068 309.542C182.016 300.359 143.092 281.58 141.036 280.346C138.98 279.113 138.569 276.646 138.569 275.823V265.954L195.722 293.094C196.545 293.642 199.012 294.739 200.245 294.739C201.479 294.739 201.89 294.739 203.124 293.916C204.357 293.094 263.1 235.168 263.1 235.168C263.1 235.168 265.259 233.523 263.1 230.645C260.942 227.766 259.4 229 259.4 229L199.012 285.281C184.231 277.996 157.82 264.366 145.34 257.926C141.618 256.005 139.135 254.724 138.569 254.44C136.102 253.207 136.102 251.973 136.102 249.095V232.646L194.489 259.786C195.037 260.06 196.545 260.608 198.189 260.608C199.834 260.608 200.519 260.06 200.656 259.786C200.656 259.786 255.754 211.009 256.988 208.953C258.221 206.897 258.221 206.074 258.221 205.252C258.221 204.429 258.221 202.785 256.576 201.962C254.932 201.14 199.423 176.056 196.956 175.234C194.489 174.411 192.762 174 190.788 174C188.815 174 185.854 174.411 184.209 175.234C182.565 176.056 131.168 218.254 129.112 220.721C127.056 223.189 125 234.949 125 240.871Z" fill="url(#paint0_linear_26_194)"/>
<path d="M489.517 106.6C504.317 106.6 517.25 109.533 528.317 115.4C539.383 121.267 547.917 129.533 553.917 140.2C560.05 150.733 563.117 162.933 563.117 176.8C563.117 190.533 560.05 202.733 553.917 213.4C547.917 224.067 539.317 232.333 528.117 238.2C517.05 244.067 504.183 247 489.517 247H436.917V106.6H489.517ZM487.317 217.4C500.25 217.4 510.317 213.867 517.517 206.8C524.717 199.733 528.317 189.733 528.317 176.8C528.317 163.867 524.717 153.8 517.517 146.6C510.317 139.4 500.25 135.8 487.317 135.8H471.117V217.4H487.317ZM653.829 247L624.629 194H616.429V247H582.229V106.6H639.629C650.696 106.6 660.096 108.533 667.829 112.4C675.696 116.267 681.562 121.6 685.429 128.4C689.296 135.067 691.229 142.533 691.229 150.8C691.229 160.133 688.562 168.467 683.229 175.8C678.029 183.133 670.296 188.333 660.029 191.4L692.429 247H653.829ZM616.429 169.8H637.629C643.896 169.8 648.562 168.267 651.629 165.2C654.829 162.133 656.429 157.8 656.429 152.2C656.429 146.867 654.829 142.667 651.629 139.6C648.562 136.533 643.896 135 637.629 135H616.429V169.8ZM779.098 248.4C765.898 248.4 753.765 245.333 742.698 239.2C731.765 233.067 723.031 224.533 716.498 213.6C710.098 202.533 706.898 190.133 706.898 176.4C706.898 162.667 710.098 150.333 716.498 139.4C723.031 128.467 731.765 119.933 742.698 113.8C753.765 107.667 765.898 104.6 779.098 104.6C792.298 104.6 804.365 107.667 815.298 113.8C826.365 119.933 835.031 128.467 841.298 139.4C847.698 150.333 850.898 162.667 850.898 176.4C850.898 190.133 847.698 202.533 841.298 213.6C834.898 224.533 826.231 233.067 815.298 239.2C804.365 245.333 792.298 248.4 779.098 248.4ZM779.098 217.2C790.298 217.2 799.231 213.467 805.898 206C812.698 198.533 816.098 188.667 816.098 176.4C816.098 164 812.698 154.133 805.898 146.8C799.231 139.333 790.298 135.6 779.098 135.6C767.765 135.6 758.698 139.267 751.898 146.6C745.231 153.933 741.898 163.867 741.898 176.4C741.898 188.8 745.231 198.733 751.898 206.2C758.698 213.533 767.765 217.2 779.098 217.2ZM976.924 151.8C976.924 159.933 975.058 167.4 971.324 174.2C967.591 180.867 961.858 186.267 954.124 190.4C946.391 194.533 936.791 196.6 925.324 196.6H904.124V247H869.924V106.6H925.324C936.524 106.6 945.991 108.533 953.724 112.4C961.458 116.267 967.258 121.6 971.124 128.4C974.991 135.2 976.924 143 976.924 151.8ZM922.724 169.4C929.258 169.4 934.124 167.867 937.324 164.8C940.524 161.733 942.124 157.4 942.124 151.8C942.124 146.2 940.524 141.867 937.324 138.8C934.124 135.733 929.258 134.2 922.724 134.2H904.124V169.4H922.724Z" fill="#1E1E1E"/>
<path d="M1035.52 251V234.6H1077.52C1085.52 234.6 1091.78 232.267 1096.32 227.6C1100.85 222.8 1103.12 217.067 1103.12 210.4C1103.12 205.867 1102.12 201.8 1100.12 198.2C1098.12 194.467 1095.18 191.533 1091.32 189.4C1087.58 187.267 1083.18 186.2 1078.12 186.2H1035.52V169.8H1075.32C1081.98 169.8 1087.25 168.067 1091.12 164.6C1095.12 161 1097.12 155.867 1097.12 149.2C1097.12 142.533 1095.05 137.467 1090.92 134C1086.78 130.4 1081.32 128.6 1074.52 128.6H1035.52V112.2H1074.92C1083.98 112.2 1091.52 113.867 1097.52 117.2C1103.65 120.4 1108.25 124.667 1111.32 130C1114.52 135.333 1116.12 141.2 1116.12 147.6C1116.12 155.067 1114.05 161.6 1109.92 167.2C1105.92 172.8 1099.98 177.2 1092.12 180.4L1093.72 174.4C1102.65 177.6 1109.58 182.467 1114.52 189C1119.58 195.4 1122.12 203 1122.12 211.8C1122.12 219.133 1120.32 225.733 1116.72 231.6C1113.12 237.467 1107.92 242.2 1101.12 245.8C1094.45 249.267 1086.25 251 1076.52 251H1035.52ZM1022.92 251V112.2H1041.72V251H1022.92ZM1210.73 253C1200.86 253 1191.66 251.2 1183.13 247.6C1174.59 243.867 1167.13 238.733 1160.73 232.2C1154.33 225.533 1149.33 217.867 1145.73 209.2C1142.26 200.533 1140.53 191.267 1140.53 181.4C1140.53 171.4 1142.26 162.133 1145.73 153.6C1149.33 144.933 1154.26 137.333 1160.53 130.8C1166.93 124.267 1174.33 119.2 1182.73 115.6C1191.26 112 1200.46 110.2 1210.33 110.2C1220.19 110.2 1229.33 112 1237.73 115.6C1246.26 119.2 1253.73 124.267 1260.13 130.8C1266.53 137.333 1271.53 144.933 1275.13 153.6C1278.73 162.267 1280.53 171.6 1280.53 181.6C1280.53 191.467 1278.73 200.733 1275.13 209.4C1271.53 218.067 1266.53 225.667 1260.13 232.2C1253.86 238.733 1246.46 243.867 1237.93 247.6C1229.53 251.2 1220.46 253 1210.73 253ZM1210.33 235C1220.33 235 1229.06 232.733 1236.53 228.2C1244.13 223.533 1250.13 217.2 1254.53 209.2C1258.93 201.067 1261.13 191.8 1261.13 181.4C1261.13 173.667 1259.86 166.6 1257.33 160.2C1254.79 153.667 1251.26 148 1246.73 143.2C1242.19 138.4 1236.86 134.733 1230.73 132.2C1224.59 129.533 1217.79 128.2 1210.33 128.2C1200.46 128.2 1191.73 130.467 1184.13 135C1176.66 139.533 1170.73 145.8 1166.33 153.8C1162.06 161.8 1159.93 171 1159.93 181.4C1159.93 189.133 1161.13 196.333 1163.53 203C1166.06 209.533 1169.53 215.2 1173.93 220C1178.46 224.667 1183.79 228.333 1189.93 231C1196.19 233.667 1202.99 235 1210.33 235ZM1370.69 253C1360.82 253 1351.62 251.2 1343.09 247.6C1334.55 243.867 1327.09 238.733 1320.69 232.2C1314.29 225.533 1309.29 217.867 1305.69 209.2C1302.22 200.533 1300.49 191.267 1300.49 181.4C1300.49 171.4 1302.22 162.133 1305.69 153.6C1309.29 144.933 1314.22 137.333 1320.49 130.8C1326.89 124.267 1334.29 119.2 1342.69 115.6C1351.22 112 1360.42 110.2 1370.29 110.2C1380.15 110.2 1389.29 112 1397.69 115.6C1406.22 119.2 1413.69 124.267 1420.09 130.8C1426.49 137.333 1431.49 144.933 1435.09 153.6C1438.69 162.267 1440.49 171.6 1440.49 181.6C1440.49 191.467 1438.69 200.733 1435.09 209.4C1431.49 218.067 1426.49 225.667 1420.09 232.2C1413.82 238.733 1406.42 243.867 1397.89 247.6C1389.49 251.2 1380.42 253 1370.69 253ZM1370.29 235C1380.29 235 1389.02 232.733 1396.49 228.2C1404.09 223.533 1410.09 217.2 1414.49 209.2C1418.89 201.067 1421.09 191.8 1421.09 181.4C1421.09 173.667 1419.82 166.6 1417.29 160.2C1414.75 153.667 1411.22 148 1406.69 143.2C1402.15 138.4 1396.82 134.733 1390.69 132.2C1384.55 129.533 1377.75 128.2 1370.29 128.2C1360.42 128.2 1351.69 130.467 1344.09 135C1336.62 139.533 1330.69 145.8 1326.29 153.8C1322.02 161.8 1319.89 171 1319.89 181.4C1319.89 189.133 1321.09 196.333 1323.49 203C1326.02 209.533 1329.49 215.2 1333.89 220C1338.42 224.667 1343.75 228.333 1349.89 231C1356.15 233.667 1362.95 235 1370.29 235ZM1552.08 251L1482.08 178.6L1550.68 112.2H1575.08L1501.08 183.4V173L1577.08 251H1552.08ZM1466.28 251V112.2H1485.08V251H1466.28Z" fill="url(#paint1_linear_26_194)"/>
<defs>
<linearGradient id="paint0_linear_26_194" x1="188.5" y1="0.121094" x2="188.5" y2="353.879" gradientUnits="userSpaceOnUse">
<stop stop-color="#F857A6"/>
<stop offset="1" stop-color="#FF5858"/>
</linearGradient>
<linearGradient id="paint1_linear_26_194" x1="1295.02" y1="72" x2="1295.02" y2="282" gradientUnits="userSpaceOnUse">
<stop stop-color="#F857A6"/>
<stop offset="1" stop-color="#FF5858"/>
</linearGradient>
</defs>
</svg>
