<svg width="958" height="340" viewBox="0 0 958 340" fill="none" xmlns="http://www.w3.org/2000/svg">
<g clip-path="url(#clip0_103_4)">
<g filter="url(#filter0_d_103_4)">
<path fill-rule="evenodd" clip-rule="evenodd" d="M155.634 48.2231C165.578 47.0539 175.384 47.1094 184.901 48.2703L65.0301 233.509C56.2088 218.955 50.2918 202.322 48.1749 184.317C40.2677 117.062 88.3789 56.1303 155.634 48.2231ZM184.269 291.777C146.749 296.188 111.197 283.165 85.7217 259.11L216.743 56.6396C256.465 73.0777 286.352 109.955 291.728 155.682C299.636 222.938 251.524 283.869 184.269 291.777ZM129.459 246.487L121.432 241.293L215.757 95.5306L223.784 100.725L129.459 246.487Z" fill="white"/>
</g>
</g>
<path d="M382.018 143.759C385.651 138.448 390.611 134.145 396.898 130.851C403.318 127.557 410.595 125.935 418.728 125.985C428.195 126.043 436.713 128.429 444.285 133.142C451.989 137.856 458.015 144.56 462.361 153.254C466.842 161.815 469.047 171.762 468.978 183.095C468.908 194.428 466.579 204.481 461.992 213.253C457.539 221.892 451.431 228.588 443.668 233.34C436.039 238.093 427.491 240.441 418.024 240.383C409.758 240.332 402.501 238.687 396.254 235.449C390.142 232.078 385.235 227.781 381.533 222.558L381.436 238.358L353.437 238.185L354.347 90.1882L382.346 90.3604L382.018 143.759ZM440.378 182.919C440.419 176.253 439.055 170.511 436.284 165.694C433.648 160.744 430.071 156.989 425.553 154.427C421.169 151.867 416.377 150.571 411.177 150.539C406.11 150.508 401.302 151.811 396.753 154.45C392.337 156.956 388.714 160.668 385.884 165.584C383.187 170.5 381.818 176.292 381.777 182.959C381.736 189.625 383.034 195.433 385.67 200.383C388.439 205.333 392.016 209.155 396.399 211.849C400.917 214.41 405.709 215.706 410.776 215.738C415.976 215.77 420.784 214.466 425.2 211.826C429.75 209.188 433.373 205.41 436.07 200.493C438.9 195.577 440.336 189.719 440.378 182.919ZM503.943 115.109C499.01 115.078 494.886 113.52 491.572 110.433C488.392 107.213 486.816 103.27 486.845 98.6033C486.873 93.9368 488.497 90.08 491.716 87.0331C495.069 83.8536 499.212 82.2791 504.145 82.3094C509.078 82.3398 513.135 83.9648 516.315 87.1844C519.63 90.2715 521.273 94.1484 521.244 98.8149C521.215 103.482 519.524 107.405 516.172 110.584C512.953 113.631 508.877 115.139 503.943 115.109ZM517.662 128.393L516.98 239.191L488.981 239.019L489.663 128.221L517.662 128.393ZM698.923 129.508L665.842 240.107L635.642 239.921L615.919 162.398L595.243 239.673L564.844 239.486L532.926 128.487L561.325 128.662L580.406 213.181L602.124 128.913L631.724 129.095L652.006 213.421L672.123 129.344L698.923 129.508ZM706.534 184.556C706.603 173.357 708.864 163.437 713.317 154.797C717.904 146.159 724.011 139.53 731.64 134.91C739.402 130.291 748.016 128.01 757.483 128.069C765.749 128.119 772.939 129.83 779.051 133.201C785.297 136.573 790.272 140.804 793.974 145.893L794.071 130.094L822.27 130.267L821.589 241.065L793.389 240.892L793.489 224.692C789.857 229.87 784.83 234.172 778.409 237.599C772.122 240.894 764.845 242.516 756.579 242.465C747.246 242.408 738.727 239.955 731.024 235.108C723.453 230.261 717.428 223.491 712.948 214.796C708.602 205.969 706.464 195.889 706.534 184.556ZM793.73 185.493C793.772 178.693 792.474 172.885 789.837 168.068C787.201 163.119 783.624 159.363 779.106 156.802C774.589 154.108 769.731 152.744 764.531 152.712C759.331 152.68 754.524 153.918 750.108 156.424C745.693 158.93 742.07 162.641 739.239 167.557C736.543 172.341 735.175 178.066 735.134 184.732C735.093 191.399 736.39 197.274 739.025 202.356C741.795 207.307 745.371 211.129 749.755 213.823C754.272 216.517 759.064 217.88 764.13 217.911C769.33 217.943 774.204 216.706 778.753 214.201C783.303 211.562 786.926 207.851 789.622 203.068C792.319 198.151 793.688 192.293 793.73 185.493ZM955.615 131.087L886.012 293.862L856.213 293.679L880.552 238.628L836.817 130.357L868.216 130.55L896.34 208.124L925.815 130.904L955.615 131.087Z" fill="white"/>
<defs>
<filter id="filter0_d_103_4" x="43.3242" y="47.3721" width="253.255" height="253.255" filterUnits="userSpaceOnUse" color-interpolation-filters="sRGB">
<feFlood flood-opacity="0" result="BackgroundImageFix"/>
<feColorMatrix in="SourceAlpha" type="matrix" values="0 0 0 0 0 0 0 0 0 0 0 0 0 0 0 0 0 0 127 0" result="hardAlpha"/>
<feOffset dy="4"/>
<feGaussianBlur stdDeviation="2"/>
<feComposite in2="hardAlpha" operator="out"/>
<feColorMatrix type="matrix" values="0 0 0 0 0 0 0 0 0 0 0 0 0 0 0 0 0 0 0.25 0"/>
<feBlend mode="normal" in2="BackgroundImageFix" result="effect1_dropShadow_103_4"/>
<feBlend mode="normal" in="SourceGraphic" in2="effect1_dropShadow_103_4" result="shape"/>
</filter>
<clipPath id="clip0_103_4">
<rect x="0.390625" y="0.438477" width="339.123" height="339.123" rx="60" fill="white"/>
</clipPath>
</defs>
</svg>
