<svg width="377" height="354" viewBox="0 0 377 354" fill="none" xmlns="http://www.w3.org/2000/svg">
<path fill-rule="evenodd" clip-rule="evenodd" d="M317.627 48.5105C300.471 18.5815 268.726 0.121092 234.415 0.121089L142.287 0.121089C108.136 0.121088 76.6271 18.4112 59.5973 48.1205L13.2359 129.001C-3.7938 158.71 -3.76554 195.339 13.3102 225.129L59.3738 305.489C76.5294 335.419 108.275 353.879 142.586 353.879L234.713 353.879C268.865 353.879 300.374 335.589 317.403 305.879L363.765 224.999C380.794 195.29 380.766 158.661 363.69 128.871L317.627 48.5105ZM302.105 155.983C302.263 157.92 301.617 159.914 300.151 161.414L252.144 210.502L240.227 204.97L287.881 154.054C282.537 142.931 271.166 135.253 257.997 135.253C246.74 135.253 236.801 140.87 230.813 149.448L214.447 193.003L204.068 188.185L216.207 149.713C210.241 140.985 200.208 135.253 188.834 135.253C177.24 135.253 167.044 141.21 161.123 150.224L172.057 188.386L160.605 197.184L146.374 149.587C140.397 140.93 130.41 135.253 119.091 135.253C106.096 135.253 94.8585 142.732 89.4288 153.615L140.271 212.806L129.623 220.986L77.4696 161.299C76.0306 159.83 75.3807 157.886 75.5034 155.983H75.4834C75.4891 155.94 75.4949 155.899 75.5008 155.857C75.5067 155.815 75.5125 155.773 75.5182 155.73C75.524 155.672 75.5329 155.615 75.5418 155.558C75.5462 155.529 75.5507 155.501 75.5547 155.472C83.3726 99.9652 131.188 57.1211 188.834 57.1211C246.656 57.1211 294.588 100.229 302.184 155.983H302.105ZM189.426 193.806C188.074 193.179 186.486 193.354 185.304 194.262L122.314 242.655L122.151 247.152L121.723 258.919C121.596 262.41 123.618 265.623 126.82 267.02L190.946 294.985C193.841 296.247 197.198 295.801 199.662 293.825L251.492 252.26C253.43 250.705 253.742 247.873 252.187 245.934C250.632 243.995 247.8 243.684 245.861 245.239L194.267 286.614L130.729 258.906L131.145 247.479L131.18 246.5L191.093 272.482C192.411 273.053 193.934 272.874 195.084 272.013L251.997 229.35C254.418 227.535 254.026 223.795 251.282 222.521L189.426 193.806Z" fill="url(#paint0_linear_58_46)"/>
<defs>
<linearGradient id="paint0_linear_58_46" x1="188.5" y1="0.121094" x2="188.5" y2="353.879" gradientUnits="userSpaceOnUse">
<stop stop-color="#F857A5"/>
<stop offset="1" stop-color="#FF5858"/>
</linearGradient>
</defs>
</svg>
