<svg width="354" height="352" viewBox="0 0 354 352" fill="none" xmlns="http://www.w3.org/2000/svg">
<path d="M203.611 22.0526L295.586 75.1427C312.625 84.9779 323.19 103.112 323.313 122.733L323.976 229.267C324.099 248.887 313.759 267.022 296.843 276.857L205.529 329.947C188.538 339.826 167.503 339.826 150.389 329.947L58.414 276.857C41.3752 267.022 30.8099 248.887 30.6876 229.267L30.0239 122.733C29.9017 103.112 40.2411 84.9779 57.1573 75.1428L148.471 22.0527C165.462 12.1739 186.497 12.1739 203.611 22.0526Z" stroke="white" stroke-width="10"/>
<path fill-rule="evenodd" clip-rule="evenodd" d="M166.101 80.8867C173.773 79.9847 181.339 80.0206 188.685 80.9038L95.5978 224.753C88.7885 213.475 84.2207 200.596 82.5823 186.66C76.4367 134.389 113.829 87.0323 166.101 80.8867ZM188.356 270.179C159.142 273.613 131.463 263.449 111.656 244.687L213.457 87.3711C244.398 100.119 267.69 128.813 271.874 164.405C278.02 216.677 240.627 264.033 188.356 270.179ZM145.466 235.157L139.228 231.12L212.538 117.832L218.776 121.869L145.466 235.157Z" fill="white"/>
</svg>
