<svg width="1124" height="352" viewBox="0 0 1124 352" fill="none" xmlns="http://www.w3.org/2000/svg">
<path d="M205.843 18.1589L297.818 71.249C316.251 81.8889 327.68 101.507 327.813 122.733L328.476 229.267C328.609 250.492 317.423 270.111 299.123 280.75L207.809 333.841C189.428 344.528 166.672 344.528 148.158 333.841L56.1825 280.751C37.7496 270.111 26.3199 250.492 26.1876 229.267L25.5239 122.733C25.3917 101.507 36.577 81.8889 54.8773 71.249L146.191 18.1589C164.572 7.47194 187.328 7.47192 205.843 18.1589Z" fill="#2D2F39" stroke="#5F5F5F"/>
<path fill-rule="evenodd" clip-rule="evenodd" d="M166.101 80.8867C173.773 79.9847 181.339 80.0206 188.685 80.9038L95.5978 224.753C88.7885 213.475 84.2207 200.596 82.5823 186.66C76.4367 134.389 113.829 87.0323 166.101 80.8867ZM188.356 270.179C159.142 273.613 131.463 263.449 111.656 244.687L213.457 87.3711C244.398 100.119 267.69 128.813 271.874 164.405C278.02 216.677 240.627 264.033 188.356 270.179ZM145.466 235.157L139.228 231.12L212.538 117.832L218.776 121.869L145.466 235.157Z" fill="white"/>
<path d="M507.628 217.73H454.808L446.068 243H418.138L465.828 110.19H496.798L544.488 243H516.368L507.628 217.73ZM500.408 196.45L481.218 140.97L462.028 196.45H500.408ZM588.914 153.13C592.334 148.063 597.021 143.947 602.974 140.78C609.054 137.613 615.957 136.03 623.684 136.03C632.677 136.03 640.784 138.247 648.004 142.68C655.351 147.113 661.114 153.447 665.294 161.68C669.601 169.787 671.754 179.223 671.754 189.99C671.754 200.757 669.601 210.32 665.294 218.68C661.114 226.913 655.351 233.31 648.004 237.87C640.784 242.43 632.677 244.71 623.684 244.71C615.831 244.71 608.927 243.19 602.974 240.15C597.147 236.983 592.461 232.93 588.914 227.99V243H562.314V102.4H588.914V153.13ZM644.584 189.99C644.584 183.657 643.254 178.21 640.594 173.65C638.061 168.963 634.641 165.417 630.334 163.01C626.154 160.603 621.594 159.4 616.654 159.4C611.841 159.4 607.281 160.667 602.974 163.2C598.794 165.607 595.374 169.153 592.714 173.84C590.181 178.527 588.914 184.037 588.914 190.37C588.914 196.703 590.181 202.213 592.714 206.9C595.374 211.587 598.794 215.197 602.974 217.73C607.281 220.137 611.841 221.34 616.654 221.34C621.594 221.34 626.154 220.073 630.334 217.54C634.641 215.007 638.061 211.397 640.594 206.71C643.254 202.023 644.584 196.45 644.584 189.99ZM722.054 159.59V210.51C722.054 214.057 722.877 216.653 724.524 218.3C726.297 219.82 729.21 220.58 733.264 220.58H745.614V243H728.894C706.474 243 695.264 232.107 695.264 210.32V159.59H682.724V137.74H695.264V111.71H722.054V137.74H745.614V159.59H722.054ZM791.346 154.08C794.766 148.507 799.199 144.137 804.646 140.97C810.219 137.803 816.552 136.22 823.646 136.22V164.15H816.616C808.256 164.15 801.922 166.113 797.616 170.04C793.436 173.967 791.346 180.807 791.346 190.56V243H764.746V137.74H791.346V154.08ZM834.722 189.99C834.722 179.35 836.812 169.913 840.992 161.68C845.299 153.447 851.062 147.113 858.282 142.68C865.629 138.247 873.799 136.03 882.792 136.03C890.645 136.03 897.485 137.613 903.312 140.78C909.265 143.947 914.015 147.937 917.562 152.75V137.74H944.352V243H917.562V227.61C914.142 232.55 909.392 236.667 903.312 239.96C897.359 243.127 890.455 244.71 882.602 244.71C873.735 244.71 865.629 242.43 858.282 237.87C851.062 233.31 845.299 226.913 840.992 218.68C836.812 210.32 834.722 200.757 834.722 189.99ZM917.562 190.37C917.562 183.91 916.295 178.4 913.762 173.84C911.229 169.153 907.809 165.607 903.502 163.2C899.195 160.667 894.572 159.4 889.632 159.4C884.692 159.4 880.132 160.603 875.952 163.01C871.772 165.417 868.352 168.963 865.692 173.65C863.159 178.21 861.892 183.657 861.892 189.99C861.892 196.323 863.159 201.897 865.692 206.71C868.352 211.397 871.772 215.007 875.952 217.54C880.259 220.073 884.819 221.34 889.632 221.34C894.572 221.34 899.195 220.137 903.502 217.73C907.809 215.197 911.229 211.65 913.762 207.09C916.295 202.403 917.562 196.83 917.562 190.37ZM983.822 125.2C979.135 125.2 975.208 123.743 972.042 120.83C969.002 117.79 967.482 114.053 967.482 109.62C967.482 105.187 969.002 101.513 972.042 98.6C975.208 95.56 979.135 94.04 983.822 94.04C988.508 94.04 992.372 95.56 995.412 98.6C998.578 101.513 1000.16 105.187 1000.16 109.62C1000.16 114.053 998.578 117.79 995.412 120.83C992.372 123.743 988.508 125.2 983.822 125.2ZM996.932 137.74V243H970.332V137.74H996.932ZM1049.81 102.4V243H1023.21V102.4H1049.81Z" fill="white"/>
</svg>
