<svg width="354" height="352" viewBox="0 0 354 352" fill="none" xmlns="http://www.w3.org/2000/svg">
<path d="M145.937 17.7263C164.473 6.9495 187.421 6.94948 206.091 17.7263L298.066 70.8164C316.653 81.5457 328.179 101.329 328.313 122.733L328.976 229.267C329.11 250.671 317.83 270.454 299.376 281.183L208.063 334.273C189.527 345.05 166.58 345.05 147.91 334.273L55.9345 281.183C37.3468 270.454 25.821 250.671 25.6876 229.267L25.0239 122.733C24.8906 101.329 36.1699 81.5457 54.6239 70.8164L145.937 17.7263Z" fill="url(#paint0_linear_342_6)"/>
<path fill-rule="evenodd" clip-rule="evenodd" d="M166.101 80.8867C173.773 79.9847 181.339 80.0206 188.685 80.9038L95.5978 224.753C88.7885 213.475 84.2207 200.596 82.5823 186.66C76.4367 134.389 113.829 87.0323 166.101 80.8867ZM188.356 270.179C159.142 273.613 131.463 263.449 111.656 244.687L213.457 87.3711C244.398 100.119 267.69 128.813 271.874 164.405C278.02 216.677 240.627 264.033 188.356 270.179ZM145.466 235.157L139.228 231.12L212.538 117.832L218.776 121.869L145.466 235.157Z" fill="white"/>
<defs>
<linearGradient id="paint0_linear_342_6" x1="175.906" y1="0.302734" x2="175.906" y2="351.697" gradientUnits="userSpaceOnUse">
<stop stop-color="#F857A5"/>
<stop offset="1" stop-color="#FF5858"/>
</linearGradient>
</defs>
</svg>
