<svg width="1128" height="352" viewBox="0 0 1128 352" fill="none" xmlns="http://www.w3.org/2000/svg">
<path d="M148.47 22.0527C165.461 12.1739 186.496 12.1739 203.61 22.0526L295.585 75.1427C312.624 84.9779 323.189 103.112 323.312 122.733L323.975 229.267C324.098 248.887 313.758 267.022 296.842 276.857L205.528 329.947C188.537 339.826 167.502 339.826 150.388 329.947L58.413 276.857C41.3742 267.022 30.8089 248.887 30.6867 229.267L30.023 122.733C29.9007 103.112 40.2401 84.9779 57.1563 75.1428L148.47 22.0527Z" stroke="white" stroke-width="10"/>
<path fill-rule="evenodd" clip-rule="evenodd" d="M166.101 80.8867C173.773 79.9847 181.339 80.0206 188.685 80.9038L95.5978 224.753C88.7885 213.475 84.2207 200.596 82.5823 186.66C76.4367 134.389 113.829 87.0323 166.101 80.8867ZM188.356 270.179C159.142 273.613 131.463 263.449 111.656 244.687L213.457 87.3711C244.398 100.119 267.69 128.813 271.874 164.405C278.02 216.677 240.627 264.033 188.356 270.179ZM145.466 235.157L139.228 231.12L212.538 117.832L218.776 121.869L145.466 235.157Z" fill="white"/>
<path d="M516.557 110.38V131.85H481.217V243H454.617V131.85H419.277V110.38H516.557ZM562.565 154.08C565.985 148.507 570.419 144.137 575.865 140.97C581.439 137.803 587.772 136.22 594.865 136.22V164.15H587.835C579.475 164.15 573.142 166.113 568.835 170.04C564.655 173.967 562.565 180.807 562.565 190.56V243H535.965V137.74H562.565V154.08ZM605.942 189.99C605.942 179.35 608.032 169.913 612.212 161.68C616.519 153.447 622.282 147.113 629.502 142.68C636.849 138.247 645.019 136.03 654.012 136.03C661.865 136.03 668.705 137.613 674.532 140.78C680.485 143.947 685.235 147.937 688.782 152.75V137.74H715.572V243H688.782V227.61C685.362 232.55 680.612 236.667 674.532 239.96C668.579 243.127 661.675 244.71 653.822 244.71C644.955 244.71 636.849 242.43 629.502 237.87C622.282 233.31 616.519 226.913 612.212 218.68C608.032 210.32 605.942 200.757 605.942 189.99ZM688.782 190.37C688.782 183.91 687.515 178.4 684.982 173.84C682.449 169.153 679.029 165.607 674.722 163.2C670.415 160.667 665.792 159.4 660.852 159.4C655.912 159.4 651.352 160.603 647.172 163.01C642.992 165.417 639.572 168.963 636.912 173.65C634.379 178.21 633.112 183.657 633.112 189.99C633.112 196.323 634.379 201.897 636.912 206.71C639.572 211.397 642.992 215.007 647.172 217.54C651.479 220.073 656.039 221.34 660.852 221.34C665.792 221.34 670.415 220.137 674.722 217.73C679.029 215.197 682.449 211.65 684.982 207.09C687.515 202.403 688.782 196.83 688.782 190.37ZM755.041 125.2C750.355 125.2 746.428 123.743 743.261 120.83C740.221 117.79 738.701 114.053 738.701 109.62C738.701 105.187 740.221 101.513 743.261 98.6C746.428 95.56 750.355 94.04 755.041 94.04C759.728 94.04 763.591 95.56 766.631 98.6C769.798 101.513 771.381 105.187 771.381 109.62C771.381 114.053 769.798 117.79 766.631 120.83C763.591 123.743 759.728 125.2 755.041 125.2ZM768.151 137.74V243H741.551V137.74H768.151ZM821.032 102.4V243H794.432V102.4H821.032ZM945.163 188.09C945.163 191.89 944.91 195.31 944.403 198.35H867.453C868.086 205.95 870.746 211.903 875.433 216.21C880.12 220.517 885.883 222.67 892.723 222.67C902.603 222.67 909.633 218.427 913.813 209.94H942.503C939.463 220.073 933.636 228.433 925.023 235.02C916.41 241.48 905.833 244.71 893.293 244.71C883.16 244.71 874.04 242.493 865.933 238.06C857.953 233.5 851.683 227.103 847.123 218.87C842.69 210.637 840.473 201.137 840.473 190.37C840.473 179.477 842.69 169.913 847.123 161.68C851.556 153.447 857.763 147.113 865.743 142.68C873.723 138.247 882.906 136.03 893.293 136.03C903.3 136.03 912.23 138.183 920.083 142.49C928.063 146.797 934.206 152.94 938.513 160.92C942.946 168.773 945.163 177.83 945.163 188.09ZM917.613 180.49C917.486 173.65 915.016 168.203 910.203 164.15C905.39 159.97 899.5 157.88 892.533 157.88C885.946 157.88 880.373 159.907 875.813 163.96C871.38 167.887 868.656 173.397 867.643 180.49H917.613ZM1065.28 137.74L1000.11 292.78H971.799L994.599 240.34L952.419 137.74H982.249L1009.42 211.27L1036.97 137.74H1065.28Z" fill="white"/>
</svg>
