<svg width="354" height="352" viewBox="0 0 354 352" fill="none" xmlns="http://www.w3.org/2000/svg">
<path d="M205.843 18.1589L297.818 71.249C316.251 81.8889 327.68 101.507 327.813 122.733L328.476 229.267C328.609 250.492 317.423 270.111 299.123 280.75L207.809 333.841C189.428 344.528 166.672 344.528 148.158 333.841L56.1825 280.751C37.7496 270.111 26.3199 250.492 26.1876 229.267L25.5239 122.733C25.3917 101.507 36.577 81.8889 54.8773 71.249L146.191 18.1589C164.572 7.47194 187.328 7.47192 205.843 18.1589Z" fill="#2D2F39" stroke="#5F5F5F"/>
<path fill-rule="evenodd" clip-rule="evenodd" d="M166.101 80.8867C173.773 79.9847 181.339 80.0206 188.685 80.9038L95.5978 224.753C88.7885 213.475 84.2207 200.596 82.5823 186.66C76.4367 134.389 113.829 87.0323 166.101 80.8867ZM188.356 270.179C159.142 273.613 131.463 263.449 111.656 244.687L213.457 87.3711C244.398 100.119 267.69 128.813 271.874 164.405C278.02 216.677 240.627 264.033 188.356 270.179ZM145.466 235.157L139.228 231.12L212.538 117.832L218.776 121.869L145.466 235.157Z" fill="white"/>
</svg>
