<svg width="1128" height="352" viewBox="0 0 1128 352" fill="none" xmlns="http://www.w3.org/2000/svg">
<path d="M145.937 17.7263C164.473 6.9495 187.421 6.94948 206.091 17.7263L298.066 70.8164C316.653 81.5457 328.179 101.329 328.313 122.733L328.976 229.267C329.11 250.671 317.83 270.454 299.376 281.183L208.063 334.273C189.527 345.05 166.58 345.05 147.91 334.273L55.9345 281.183C37.3468 270.454 25.821 250.671 25.6876 229.267L25.0239 122.733C24.8906 101.329 36.1699 81.5457 54.6239 70.8164L145.937 17.7263Z" fill="url(#paint0_linear_342_5)"/>
<path fill-rule="evenodd" clip-rule="evenodd" d="M166.101 80.8867C173.773 79.9847 181.339 80.0206 188.685 80.9038L95.5978 224.753C88.7885 213.475 84.2207 200.596 82.5823 186.66C76.4367 134.389 113.829 87.0323 166.101 80.8867ZM188.356 270.179C159.142 273.613 131.463 263.449 111.656 244.687L213.457 87.3711C244.398 100.119 267.69 128.813 271.874 164.405C278.02 216.677 240.627 264.033 188.356 270.179ZM145.466 235.157L139.228 231.12L212.538 117.832L218.776 121.869L145.466 235.157Z" fill="white"/>
<path d="M516.558 110.38V131.85H481.218V243H454.618V131.85H419.278V110.38H516.558ZM562.566 154.08C565.986 148.507 570.42 144.137 575.866 140.97C581.44 137.803 587.773 136.22 594.866 136.22V164.15H587.836C579.476 164.15 573.143 166.113 568.836 170.04C564.656 173.967 562.566 180.807 562.566 190.56V243H535.966V137.74H562.566V154.08ZM605.943 189.99C605.943 179.35 608.033 169.913 612.213 161.68C616.52 153.447 622.283 147.113 629.503 142.68C636.85 138.247 645.02 136.03 654.013 136.03C661.866 136.03 668.706 137.613 674.533 140.78C680.486 143.947 685.236 147.937 688.783 152.75V137.74H715.573V243H688.783V227.61C685.363 232.55 680.613 236.667 674.533 239.96C668.58 243.127 661.676 244.71 653.823 244.71C644.956 244.71 636.85 242.43 629.503 237.87C622.283 233.31 616.52 226.913 612.213 218.68C608.033 210.32 605.943 200.757 605.943 189.99ZM688.783 190.37C688.783 183.91 687.516 178.4 684.983 173.84C682.45 169.153 679.03 165.607 674.723 163.2C670.416 160.667 665.793 159.4 660.853 159.4C655.913 159.4 651.353 160.603 647.173 163.01C642.993 165.417 639.573 168.963 636.913 173.65C634.38 178.21 633.113 183.657 633.113 189.99C633.113 196.323 634.38 201.897 636.913 206.71C639.573 211.397 642.993 215.007 647.173 217.54C651.48 220.073 656.04 221.34 660.853 221.34C665.793 221.34 670.416 220.137 674.723 217.73C679.03 215.197 682.45 211.65 684.983 207.09C687.516 202.403 688.783 196.83 688.783 190.37ZM755.042 125.2C750.356 125.2 746.429 123.743 743.262 120.83C740.222 117.79 738.702 114.053 738.702 109.62C738.702 105.187 740.222 101.513 743.262 98.6C746.429 95.56 750.356 94.04 755.042 94.04C759.729 94.04 763.592 95.56 766.632 98.6C769.799 101.513 771.382 105.187 771.382 109.62C771.382 114.053 769.799 117.79 766.632 120.83C763.592 123.743 759.729 125.2 755.042 125.2ZM768.152 137.74V243H741.552V137.74H768.152ZM821.033 102.4V243H794.433V102.4H821.033ZM945.164 188.09C945.164 191.89 944.911 195.31 944.404 198.35H867.454C868.087 205.95 870.747 211.903 875.434 216.21C880.121 220.517 885.884 222.67 892.724 222.67C902.604 222.67 909.634 218.427 913.814 209.94H942.504C939.464 220.073 933.637 228.433 925.024 235.02C916.411 241.48 905.834 244.71 893.294 244.71C883.161 244.71 874.041 242.493 865.934 238.06C857.954 233.5 851.684 227.103 847.124 218.87C842.691 210.637 840.474 201.137 840.474 190.37C840.474 179.477 842.691 169.913 847.124 161.68C851.557 153.447 857.764 147.113 865.744 142.68C873.724 138.247 882.907 136.03 893.294 136.03C903.301 136.03 912.231 138.183 920.084 142.49C928.064 146.797 934.207 152.94 938.514 160.92C942.947 168.773 945.164 177.83 945.164 188.09ZM917.614 180.49C917.487 173.65 915.017 168.203 910.204 164.15C905.391 159.97 899.501 157.88 892.534 157.88C885.947 157.88 880.374 159.907 875.814 163.96C871.381 167.887 868.657 173.397 867.644 180.49H917.614ZM1065.28 137.74L1000.11 292.78H971.8L994.6 240.34L952.42 137.74H982.25L1009.42 211.27L1036.97 137.74H1065.28Z" fill="black"/>
<defs>
<linearGradient id="paint0_linear_342_5" x1="175.906" y1="0.302734" x2="175.906" y2="351.697" gradientUnits="userSpaceOnUse">
<stop stop-color="#F857A5"/>
<stop offset="1" stop-color="#FF5858"/>
</linearGradient>
</defs>
</svg>
